<svg xmlns="http://www.w3.org/2000/svg" viewBox="0 0 512 512">
  <!-- Orange circle background -->
  <circle cx="256" cy="256" r="256" fill="#E06030"/>

  <!-- Sponge body -->
  <rect x="100" y="200" width="180" height="140" rx="30" fill="none" stroke="white" stroke-width="16"/>

  <!-- Sponge holes -->
  <circle cx="155" cy="255" r="12" fill="white"/>
  <circle cx="200" cy="235" r="10" fill="white"/>
  <circle cx="185" cy="285" r="14" fill="white"/>
  <circle cx="235" cy="260" r="11" fill="white"/>
  <circle cx="145" cy="305" r="9" fill="white"/>
  <circle cx="225" cy="305" r="10" fill="white"/>

  <!-- Big bubble 1 -->
  <circle cx="350" cy="280" r="70" fill="none" stroke="white" stroke-width="14"/>
  <path d="M315 250 Q310 240 318 235" stroke="white" stroke-width="8" fill="none" stroke-linecap="round"/>

  <!-- Big bubble 2 -->
  <circle cx="310" cy="170" r="50" fill="none" stroke="white" stroke-width="12"/>
  <path d="M282 148 Q278 140 284 136" stroke="white" stroke-width="7" fill="none" stroke-linecap="round"/>

  <!-- Small bubbles -->
  <circle cx="400" cy="175" r="25" fill="none" stroke="white" stroke-width="10"/>
  <circle cx="420" cy="320" r="18" fill="none" stroke="white" stroke-width="8"/>
  <circle cx="250" cy="135" r="15" fill="none" stroke="white" stroke-width="7"/>
  <circle cx="140" cy="165" r="12" fill="none" stroke="white" stroke-width="6"/>
  <circle cx="370" cy="390" r="14" fill="none" stroke="white" stroke-width="7"/>
  <circle cx="180" cy="380" r="10" fill="none" stroke="white" stroke-width="6"/>
</svg>
